<svg width="22" height="24" viewBox="0 0 22 24" fill="none" xmlns="http://www.w3.org/2000/svg">
<path d="M5.00932 5H6.51758C6.63889 4.15193 7.36825 3.5 8.24988 3.5H16.25C18.0449 3.5 19.5 4.95507 19.5 6.75V14.75C19.5 15.6316 18.8481 16.361 18 16.4823V17.9905C19.6781 17.8629 21 16.4608 21 14.75V6.75C21 4.12665 18.8733 2 16.25 2H8.24988C6.53905 2 5.13697 3.32189 5.00932 5ZM1 9.25C1 7.45507 2.45509 6 4.25003 6H13.7501C15.5451 6 17.0002 7.45507 17.0002 9.25V18.75C17.0002 20.5449 15.5451 22 13.7501 22H4.25003C2.45509 22 1 20.5449 1 18.75V9.25ZM4.25003 7.5C3.28352 7.5 2.50001 8.2835 2.50001 9.25V16.5H8.25C9.49264 16.5 10.5 17.5074 10.5 18.75V20.5H13.7501C14.7166 20.5 15.5001 19.7165 15.5001 18.75V9.25C15.5001 8.2835 14.7166 7.5 13.7501 7.5H4.25003ZM9 20.5V18.75C9 18.3358 8.66421 18 8.25 18H2.50001V18.75C2.50001 19.7165 3.28352 20.5 4.25003 20.5H9Z" fill="#181E24"/>
</svg>
