<svg width="36" height="31" viewBox="0 0 36 31" fill="none" xmlns="http://www.w3.org/2000/svg">
<path fill-rule="evenodd" clip-rule="evenodd" d="M0 15.4801C0 6.93032 8.05813 0 17.9998 0C27.9419 0 36 6.93032 36 15.4801C36 24.0308 27.9419 30.9617 17.9998 30.9617C8.05813 30.9617 0 24.0308 0 15.4801Z" fill="#1F4578"/>
<path fill-rule="evenodd" clip-rule="evenodd" d="M15.8144 4.97062L19.9955 3.58875L20.016 26.1967L15.7994 27.6096L15.8144 4.97062Z" fill="#ED3338"/>
<path fill-rule="evenodd" clip-rule="evenodd" d="M18.297 19.0699C16.4795 21.2595 14.7231 23.498 11.4327 23.498C6.78447 23.498 4.58289 19.0049 4.58289 15.2484C4.58289 11.6394 6.30483 7.36682 10.8305 7.36682C12.7945 7.36682 14.6871 8.56812 15.8118 9.83795L15.809 12.9023C14.8687 12.2681 12.7597 11.646 11.3828 11.6239C8.51207 11.5754 5.97991 12.8193 6.02542 15.6535C6.0549 17.6045 7.98693 18.9319 9.91044 18.9319C12.8567 18.9319 14.6402 16.2407 16.1326 14.1976C16.5482 13.6645 17.7225 12.0951 17.905 11.844C19.562 9.52988 21.4795 7.41532 24.7694 7.41532C28.6439 7.41532 30.8189 10.5401 31.4351 13.7565H29.6877C28.9845 12.7137 27.6311 12.0756 26.2962 12.0756C23.2514 12.0756 21.4325 14.8763 19.9106 16.9383C19.9106 16.9383 18.7256 18.5537 18.297 19.0699ZM31.5365 17.0404C31.1439 20.2747 29.3309 23.5401 25.3694 23.5471C23.0582 23.5513 21.2508 21.9676 19.9989 20.0306V17.7876C21.5653 18.5653 23.0282 19.3975 24.8037 19.4245C26.9903 19.457 28.9673 18.6153 29.785 17.0404H31.5365Z" fill="white"/>
</svg>
