<svg width="36" height="32" viewBox="0 0 36 32" fill="none" xmlns="http://www.w3.org/2000/svg">
<path d="M18.0356 0C19.8887 3.21385 21.7419 6.39165 23.5264 9.60551C20.603 14.8409 17.6797 20.1149 14.6496 25.3142C13.4727 27.2997 12.3669 29.3238 11.1925 31.3093C7.45065 31.3454 3.70626 31.3454 0 31.3093C0.106765 31.0569 0.213529 30.8046 0.355882 30.5522C6.27115 20.3673 12.189 10.221 18.0356 0ZM18.0356 19.502C21.7775 19.502 25.5218 19.466 29.2637 19.5381C31.5083 23.4756 33.791 27.3744 36 31.3479C32.2582 31.384 28.5138 31.3479 24.7719 31.3479C22.5629 27.3744 20.2446 23.473 18.0356 19.502Z" fill="#AE285D"/>
</svg>
