<svg width="18" height="18" viewBox="0 0 18 18" fill="none" xmlns="http://www.w3.org/2000/svg">
<path fill-rule="evenodd" clip-rule="evenodd" d="M16.5 9C16.5 13.1421 13.1421 16.5 9 16.5C4.85786 16.5 1.5 13.1421 1.5 9C1.5 4.85786 4.85786 1.5 9 1.5C13.1421 1.5 16.5 4.85786 16.5 9ZM9.25 3.5C9.66421 3.5 10 3.83579 10 4.25V8H13.75C14.1642 8 14.5 8.33579 14.5 8.75C14.5 9.16421 14.1642 9.5 13.75 9.5H10V13.25C10 13.6642 9.66421 14 9.25 14C8.83579 14 8.5 13.6642 8.5 13.25V9.5H4.75C4.33579 9.5 4 9.16421 4 8.75C4 8.33579 4.33579 8 4.75 8H8.5V4.25C8.5 3.83579 8.83579 3.5 9.25 3.5Z" fill="white"/>
</svg>
