<svg width="18" height="18" viewBox="0 0 18 18" fill="none" xmlns="http://www.w3.org/2000/svg">
<path fill-rule="evenodd" clip-rule="evenodd" d="M16.5 9C16.5 4.85786 13.1421 1.5 9 1.5C4.85786 1.5 1.5 4.85786 1.5 9C1.5 13.1421 4.85786 16.5 9 16.5C13.1421 16.5 16.5 13.1421 16.5 9ZM13.5303 7.28033C13.8232 6.98744 13.8232 6.51256 13.5303 6.21967C13.2374 5.92678 12.7626 5.92678 12.4697 6.21967L7.75 10.9393L5.78033 8.96967C5.48744 8.67678 5.01256 8.67678 4.71967 8.96967C4.42678 9.26256 4.42678 9.73744 4.71967 10.0303L7.21967 12.5303C7.51256 12.8232 7.98744 12.8232 8.28033 12.5303L13.5303 7.28033Z" fill="#56AB2F"/>
</svg>
