<svg width="24" height="24" viewBox="0 0 24 24" fill="none" xmlns="http://www.w3.org/2000/svg">
<path d="M9.52531 3.57174L10.427 5.57746C10.9097 6.65129 10.6553 7.91329 9.79427 8.71624L8.29997 10.1097C8.25629 10.1504 8.22864 10.2054 8.22201 10.2648C8.17765 10.6619 8.44688 11.4353 9.06715 12.5097C9.5182 13.2909 9.92644 13.8388 10.2739 14.1469C10.516 14.3616 10.6493 14.408 10.7061 14.3911L12.7164 13.7765C13.842 13.4324 15.0618 13.8428 15.7505 14.7973L17.0312 16.5723C17.8373 17.6895 17.6924 19.2308 16.6921 20.1781L15.8057 21.0175C14.8493 21.9232 13.4877 22.2608 12.219 21.9066C9.4649 21.1379 6.99559 18.8138 4.78372 14.9827C2.56877 11.1463 1.79158 7.84186 2.50803 5.07007C2.81769 3.87205 3.69665 2.90871 4.85011 2.48684L5.05646 2.41807L6.22346 2.06631C7.54596 1.66767 8.95896 2.31191 9.52531 3.57174ZM6.65636 3.50248L5.48936 3.85425L5.3308 3.90854C4.65584 4.1681 4.14297 4.73871 3.9603 5.44544C3.35765 7.77696 4.04651 10.7058 6.08276 14.2327C8.11629 17.7549 10.3052 19.8151 12.6223 20.4619C13.3835 20.6743 14.2004 20.4718 14.7743 19.9284L15.6606 19.089C16.1153 18.6584 16.1812 17.9578 15.8148 17.4499L14.5341 15.675C14.221 15.2411 13.6666 15.0546 13.1549 15.211L11.1396 15.8271C9.96987 16.1758 8.9082 15.2344 7.76811 13.2597C6.9998 11.9289 6.64171 10.9002 6.73128 10.0983C6.77768 9.68286 6.97125 9.29775 7.27697 9.01267L8.77127 7.61921C9.16266 7.25423 9.27829 6.68059 9.05887 6.19249L8.1572 4.18677C7.89977 3.61412 7.25749 3.32129 6.65636 3.50248ZM14.748 2.00129L21.2638 2.00148C21.2896 2.00068 21.3154 2.00249 21.3411 2.00564L21.4027 2.01592L21.4977 2.04229L21.5864 2.07988L21.6538 2.11951C21.6983 2.14668 21.7406 2.18053 21.7797 2.21959C21.8182 2.25807 21.8517 2.2997 21.88 2.34364L21.9221 2.41777L21.9639 2.52116L21.988 2.61853L21.9989 2.71946L21.9995 9.25524C21.9995 9.66946 21.6637 10.0052 21.2495 10.0052C20.8698 10.0052 20.556 9.72309 20.5064 9.35701L20.4995 9.25524L20.4995 4.56085L14.2795 10.7846C14.0133 11.0509 13.5967 11.0752 13.303 10.8574L13.2189 10.7848C12.9525 10.5186 12.9282 10.102 13.146 9.80831L13.2186 9.72417L19.4385 3.50085L14.748 3.50135C14.3683 3.50135 14.0545 3.2192 14.0048 2.85312L13.998 2.75135C13.998 2.33714 14.3338 2.00129 14.748 2.00129Z" fill="#56AB2F"/>
</svg>
