<svg width="24" height="24" viewBox="0 0 24 24" fill="none" xmlns="http://www.w3.org/2000/svg">
<path d="M9.52544 3.57174L10.4271 5.57746C10.9098 6.65129 10.6554 7.91329 9.79439 8.71624L8.30009 10.1097C8.25641 10.1504 8.22876 10.2054 8.22213 10.2648C8.17778 10.6619 8.447 11.4353 9.06727 12.5097C9.51832 13.2909 9.92657 13.8388 10.2741 14.1469C10.5162 14.3616 10.6494 14.408 10.7062 14.3911L12.7165 13.7765C13.8421 13.4324 15.0619 13.8428 15.7506 14.7973L17.0313 16.5723C17.8374 17.6895 17.6925 19.2308 16.6922 20.1781L15.8058 21.0175C14.8494 21.9232 13.4879 22.2608 12.2191 21.9066C9.46503 21.1379 6.99572 18.8138 4.78384 14.9827C2.56889 11.1463 1.7917 7.84186 2.50815 5.07007C2.81781 3.87205 3.69677 2.90871 4.85024 2.48684L5.05658 2.41807L6.22358 2.06631C7.54608 1.66767 8.95908 2.31191 9.52544 3.57174ZM6.65648 3.50248L5.48948 3.85425L5.33092 3.90854C4.65597 4.1681 4.14309 4.73871 3.96042 5.44544C3.35777 7.77696 4.04663 10.7058 6.08288 14.2327C8.11641 17.7549 10.3054 19.8151 12.6224 20.4619C13.3836 20.6743 14.2006 20.4718 14.7744 19.9284L15.6608 19.089C16.1154 18.6584 16.1813 17.9578 15.8149 17.4499L14.5342 15.675C14.2211 15.2411 13.6667 15.0546 13.155 15.211L11.1397 15.8271C9.97 16.1758 8.90832 15.2344 7.76823 13.2597C6.99993 11.9289 6.64183 10.9002 6.7314 10.0983C6.7778 9.68286 6.97137 9.29775 7.27709 9.01267L8.77139 7.61921C9.16278 7.25423 9.27842 6.68059 9.05899 6.19249L8.15732 4.18677C7.89989 3.61412 7.25762 3.32129 6.65648 3.50248ZM14.7481 2.00129L21.264 2.00148C21.2897 2.00068 21.3156 2.00249 21.3413 2.00564L21.4028 2.01592L21.4979 2.04229L21.5865 2.07988L21.6539 2.11951C21.6984 2.14668 21.7408 2.18053 21.7798 2.21959C21.8183 2.25807 21.8518 2.2997 21.8802 2.34364L21.9222 2.41777L21.964 2.52116L21.9881 2.61853L21.999 2.71946L21.9996 9.25524C21.9996 9.66946 21.6639 10.0052 21.2496 10.0052C20.8699 10.0052 20.5562 9.72309 20.5065 9.35701L20.4996 9.25524L20.4996 4.56085L14.2797 10.7846C14.0135 11.0509 13.5968 11.0752 13.3031 10.8574L13.219 10.7848C12.9527 10.5186 12.9284 10.102 13.1461 9.80831L13.2187 9.72417L19.4386 3.50085L14.7481 3.50135C14.3684 3.50135 14.0546 3.2192 14.005 2.85312L13.9981 2.75135C13.9981 2.33714 14.3339 2.00129 14.7481 2.00129Z" fill="white"/>
</svg>
