<svg width="140" height="115" viewBox="0 0 140 115" fill="none" xmlns="http://www.w3.org/2000/svg">
<circle cx="70" cy="34" r="34" fill="#56AB2F"/>
<path d="M70 17C61.9857 17 55.4286 23.4357 55.4286 31.45V35.7C55.4286 35.8214 55.4286 35.8214 55.4286 35.9429C55.4286 36.0643 55.4286 36.3071 55.4286 36.4286C55.4286 39.8286 58.1 42.5 61.5 42.5C62.2286 42.5 62.7143 42.0143 62.7143 41.2857V31.5714C62.7143 30.8429 62.2286 30.3571 61.5 30.3571C60.1643 30.3571 58.8286 30.8429 57.8572 31.5714V31.3286C57.8572 24.7714 63.3214 19.4286 70 19.4286C76.6786 19.4286 82.1429 24.7714 82.1429 31.45V31.5714C81.1714 30.8429 79.8357 30.3571 78.5 30.3571C77.7714 30.3571 77.2857 30.8429 77.2857 31.5714V41.2857C77.2857 42.0143 77.7714 42.5 78.5 42.5C79.35 42.5 80.2 42.2571 80.9286 42.0143C79.7143 44.5643 77.5286 46.5071 74.8572 47.6C74.8572 47.4786 74.8572 47.4786 74.8572 47.3571C74.8572 46.6286 74.3714 46.1429 73.6429 46.1429H70C69.2714 46.1429 68.7857 46.6286 68.7857 47.3571V49.7857C68.7857 50.5143 69.2714 51 70 51C78.0143 51 84.5714 44.6857 84.5714 36.9143V35.7V32.7857V31.45C84.5714 23.4357 78.0143 17 70 17Z" fill="white" stroke="white"/>
<path d="M31.8 86.92V115H24.96V98.16L18.68 115H13.16L6.84 98.12V115H0V86.92H8.08L15.96 106.36L23.76 86.92H31.8Z" fill="#56AB2F"/>
<path d="M53.5588 86.92V115H46.7188V86.92H53.5588Z" fill="#56AB2F"/>
<path d="M88.7156 86.92V92.4H81.2756V115H74.4356V92.4H66.9956V86.92H88.7156Z" fill="#56AB2F"/>
<path d="M108.988 86.92V115H102.148V86.92H108.988Z" fill="#56AB2F"/>
<path d="M130.785 109.72H139.745V115H123.945V86.92H130.785V109.72Z" fill="#56AB2F"/>
</svg>
