<svg width="14" height="11" viewBox="0 0 14 11" fill="none" xmlns="http://www.w3.org/2000/svg">
<path fill-rule="evenodd" clip-rule="evenodd" d="M6.03033 0.46967C6.32322 0.762563 6.32322 1.23744 6.03033 1.53033L2.81066 4.75H13C13.4142 4.75 13.75 5.08579 13.75 5.5C13.75 5.91421 13.4142 6.25 13 6.25H2.81066L6.03033 9.46967C6.32322 9.76256 6.32322 10.2374 6.03033 10.5303C5.73744 10.8232 5.26256 10.8232 4.96967 10.5303L0.46967 6.03033C0.323223 5.88388 0.25 5.69194 0.25 5.5C0.25 5.39831 0.270239 5.30134 0.306909 5.21291C0.343509 5.12445 0.397763 5.04158 0.46967 4.96967L4.96967 0.46967C5.26256 0.176777 5.73744 0.176777 6.03033 0.46967Z" fill="#C0C0CA"/>
<path d="M6.03033 1.53033L5.85355 1.35355L5.85355 1.35355L6.03033 1.53033ZM6.03033 0.46967L6.20711 0.292893V0.292893L6.03033 0.46967ZM2.81066 4.75L2.63388 4.57322L2.20711 5H2.81066V4.75ZM2.81066 6.25V6H2.20711L2.63388 6.42678L2.81066 6.25ZM6.03033 9.46967L5.85355 9.64645L6.03033 9.46967ZM4.96967 10.5303L5.14645 10.3536L4.96967 10.5303ZM0.46967 6.03033L0.292893 6.20711L0.292893 6.20711L0.46967 6.03033ZM0.306909 5.21291L0.537841 5.30867L0.537917 5.30849L0.306909 5.21291ZM0.46967 4.96967L0.292893 4.79289L0.292893 4.79289L0.46967 4.96967ZM4.96967 0.46967L4.79289 0.292893L4.79289 0.292893L4.96967 0.46967ZM6.20711 1.70711C6.59763 1.31658 6.59763 0.683417 6.20711 0.292893L5.85355 0.646447C6.04882 0.841709 6.04882 1.15829 5.85355 1.35355L6.20711 1.70711ZM2.98744 4.92678L6.20711 1.70711L5.85355 1.35355L2.63388 4.57322L2.98744 4.92678ZM13 4.5H2.81066V5H13V4.5ZM14 5.5C14 4.94772 13.5523 4.5 13 4.5V5C13.2761 5 13.5 5.22386 13.5 5.5H14ZM13 6.5C13.5523 6.5 14 6.05228 14 5.5H13.5C13.5 5.77614 13.2761 6 13 6V6.5ZM2.81066 6.5H13V6H2.81066V6.5ZM6.20711 9.29289L2.98744 6.07322L2.63388 6.42678L5.85355 9.64645L6.20711 9.29289ZM6.20711 10.7071C6.59763 10.3166 6.59763 9.68342 6.20711 9.29289L5.85355 9.64645C6.04882 9.84171 6.04882 10.1583 5.85355 10.3536L6.20711 10.7071ZM4.79289 10.7071C5.18342 11.0976 5.81658 11.0976 6.20711 10.7071L5.85355 10.3536C5.65829 10.5488 5.34171 10.5488 5.14645 10.3536L4.79289 10.7071ZM0.292893 6.20711L4.79289 10.7071L5.14645 10.3536L0.646447 5.85355L0.292893 6.20711ZM0 5.5C0 5.75554 0.09768 6.01189 0.292893 6.20711L0.646447 5.85355C0.548767 5.75587 0.5 5.62835 0.5 5.5H0ZM0.0759771 5.11715C0.02694 5.2354 0 5.36487 0 5.5H0.5C0.5 5.43174 0.513538 5.36728 0.537841 5.30867L0.0759771 5.11715ZM0.292893 4.79289C0.197343 4.88844 0.124845 4.99904 0.0759013 5.11733L0.537917 5.30849C0.562173 5.24987 0.598182 5.19471 0.646447 5.14645L0.292893 4.79289ZM4.79289 0.292893L0.292893 4.79289L0.646447 5.14645L5.14645 0.646447L4.79289 0.292893ZM6.20711 0.292893C5.81658 -0.0976311 5.18342 -0.0976311 4.79289 0.292893L5.14645 0.646447C5.34171 0.451184 5.65829 0.451184 5.85355 0.646447L6.20711 0.292893Z" fill="#C0C0CA"/>
<mask id="mask0_0_7" style="mask-type:luminance" maskUnits="userSpaceOnUse" x="0" y="0" width="14" height="11">
<path fill-rule="evenodd" clip-rule="evenodd" d="M6.03033 0.46967C6.32322 0.762563 6.32322 1.23744 6.03033 1.53033L2.81066 4.75H13C13.4142 4.75 13.75 5.08579 13.75 5.5C13.75 5.91421 13.4142 6.25 13 6.25H2.81066L6.03033 9.46967C6.32322 9.76256 6.32322 10.2374 6.03033 10.5303C5.73744 10.8232 5.26256 10.8232 4.96967 10.5303L0.46967 6.03033C0.323223 5.88388 0.25 5.69194 0.25 5.5C0.25 5.39831 0.270239 5.30134 0.306909 5.21291C0.343509 5.12445 0.397763 5.04158 0.46967 4.96967L4.96967 0.46967C5.26256 0.176777 5.73744 0.176777 6.03033 0.46967Z" fill="white"/>
<path d="M6.03033 1.53033L5.85355 1.35355L5.85355 1.35355L6.03033 1.53033ZM6.03033 0.46967L6.20711 0.292893V0.292893L6.03033 0.46967ZM2.81066 4.75L2.63388 4.57322L2.20711 5H2.81066V4.75ZM2.81066 6.25V6H2.20711L2.63388 6.42678L2.81066 6.25ZM6.03033 9.46967L5.85355 9.64645L6.03033 9.46967ZM4.96967 10.5303L5.14645 10.3536L4.96967 10.5303ZM0.46967 6.03033L0.292893 6.20711L0.292893 6.20711L0.46967 6.03033ZM0.306909 5.21291L0.537841 5.30867L0.537917 5.30849L0.306909 5.21291ZM0.46967 4.96967L0.292893 4.79289L0.292893 4.79289L0.46967 4.96967ZM4.96967 0.46967L4.79289 0.292893L4.79289 0.292893L4.96967 0.46967ZM6.20711 1.70711C6.59763 1.31658 6.59763 0.683417 6.20711 0.292893L5.85355 0.646447C6.04882 0.841709 6.04882 1.15829 5.85355 1.35355L6.20711 1.70711ZM2.98744 4.92678L6.20711 1.70711L5.85355 1.35355L2.63388 4.57322L2.98744 4.92678ZM13 4.5H2.81066V5H13V4.5ZM14 5.5C14 4.94772 13.5523 4.5 13 4.5V5C13.2761 5 13.5 5.22386 13.5 5.5H14ZM13 6.5C13.5523 6.5 14 6.05228 14 5.5H13.5C13.5 5.77614 13.2761 6 13 6V6.5ZM2.81066 6.5H13V6H2.81066V6.5ZM6.20711 9.29289L2.98744 6.07322L2.63388 6.42678L5.85355 9.64645L6.20711 9.29289ZM6.20711 10.7071C6.59763 10.3166 6.59763 9.68342 6.20711 9.29289L5.85355 9.64645C6.04882 9.84171 6.04882 10.1583 5.85355 10.3536L6.20711 10.7071ZM4.79289 10.7071C5.18342 11.0976 5.81658 11.0976 6.20711 10.7071L5.85355 10.3536C5.65829 10.5488 5.34171 10.5488 5.14645 10.3536L4.79289 10.7071ZM0.292893 6.20711L4.79289 10.7071L5.14645 10.3536L0.646447 5.85355L0.292893 6.20711ZM0 5.5C0 5.75554 0.09768 6.01189 0.292893 6.20711L0.646447 5.85355C0.548767 5.75587 0.5 5.62835 0.5 5.5H0ZM0.0759771 5.11715C0.02694 5.2354 0 5.36487 0 5.5H0.5C0.5 5.43174 0.513538 5.36728 0.537841 5.30867L0.0759771 5.11715ZM0.292893 4.79289C0.197343 4.88844 0.124845 4.99904 0.0759013 5.11733L0.537917 5.30849C0.562173 5.24987 0.598182 5.19471 0.646447 5.14645L0.292893 4.79289ZM4.79289 0.292893L0.292893 4.79289L0.646447 5.14645L5.14645 0.646447L4.79289 0.292893ZM6.20711 0.292893C5.81658 -0.0976311 5.18342 -0.0976311 4.79289 0.292893L5.14645 0.646447C5.34171 0.451184 5.65829 0.451184 5.85355 0.646447L6.20711 0.292893Z" fill="white"/>
</mask>
<g mask="url(#mask0_0_7)">
<rect x="-2" y="-3.5" width="18" height="18" fill="#C0C0CA" stroke="#C0C0CA" stroke-width="0.5"/>
</g>
</svg>
