<svg width="32" height="35" viewBox="0 0 32 35" fill="none" xmlns="http://www.w3.org/2000/svg">
<path d="M9.05632 7.52758C16.9697 -0.327655 26.5699 -2.36635 30.4118 2.98778C34.2536 8.3419 30.8771 19.1636 22.9637 27.0188C15.0503 34.9322 5.45008 36.968 1.55009 31.5557C-2.23066 26.1463 1.14583 15.3799 9.05632 7.52758Z" fill="#F06321"/>
<path d="M14.2941 3.33672C13.4216 3.97654 12.5491 4.73269 11.6767 5.54992C4.75208 12.4134 1.84088 21.8391 5.27556 26.5534C8.82364 31.2648 17.3187 29.5199 24.4178 22.5953C28.2596 18.8727 30.8189 14.5656 31.8659 10.5521C32.1567 7.58571 31.7496 4.96536 30.4117 2.98773C27.3871 -1.20018 20.8697 -0.854094 14.2941 3.33672Z" fill="#AE282E"/>
<path d="M24.3016 4.20922V4.38372C24.2436 5.37253 23.6618 6.594 22.6148 7.64097C21.0444 9.15327 18.9504 9.73493 18.075 8.86536C17.0862 7.93471 17.6708 5.89602 19.2412 4.26739C20.8699 2.69692 22.9638 2.17343 23.8363 3.10408C24.1271 3.3949 24.3016 3.7439 24.3016 4.20922ZM18.2524 30.9158C14.5269 33.7078 10.688 35.1067 6.96251 34.525C8.53298 34.5832 9.81551 32.8353 10.8625 30.5087C11.9095 28.1239 12.4911 25.9136 13.0146 23.8168C13.7707 20.5013 13.8289 18.1747 13.4218 17.6512C12.7819 16.834 11.386 17.0114 9.75443 17.9421C8.94012 18.4074 7.89315 18.1166 9.11752 16.6043C10.3972 15.092 15.3412 11.4828 17.0862 10.9011C19.0667 10.3777 21.277 11.1338 20.5209 13.2859C19.9945 14.8564 13.131 32.7771 18.2524 30.9158Z" fill="white"/>
</svg>
